<?xml version="1.0" encoding="UTF-8"?>
<svg width="925px" height="910px" viewBox="0 0 925 910" version="1.1" xmlns="http://www.w3.org/2000/svg" xmlns:xlink="http://www.w3.org/1999/xlink">
    <title>Group 6</title>
    <defs>
        <radialGradient cx="50.5264683%" cy="125.278416%" fx="50.5264683%" fy="125.278416%" r="483.008782%" gradientTransform="translate(0.5053, 1.2528), scale(0.0647, 1), rotate(83.8322), translate(-0.5053, -1.2528)" id="radialGradient-1">
            <stop stop-color="#F9C460" offset="0%"></stop>
            <stop stop-color="#FFBD3F" offset="100%"></stop>
        </radialGradient>
        <radialGradient cx="50%" cy="50%" fx="50%" fy="50%" r="805.257969%" gradientTransform="translate(0.5, 0.5), scale(0.0664, 1), rotate(82.8095), translate(-0.5, -0.5)" id="radialGradient-2">
            <stop stop-color="#FFBD3F" offset="0%"></stop>
            <stop stop-color="#E8A21C" offset="100%"></stop>
        </radialGradient>
        <radialGradient cx="50%" cy="50%" fx="50%" fy="50%" r="368.75%" gradientTransform="translate(0.5, 0.5), scale(0.1356, 1), rotate(180), scale(1, 5.3413), translate(-0.5, -0.5)" id="radialGradient-3">
            <stop stop-color="#F6AA76" offset="0%"></stop>
            <stop stop-color="#B1772D" offset="100%"></stop>
        </radialGradient>
        <linearGradient x1="50%" y1="0%" x2="50%" y2="100%" id="linearGradient-4">
            <stop stop-color="#F6B080" offset="0%"></stop>
            <stop stop-color="#B1772D" offset="100%"></stop>
        </linearGradient>
        <radialGradient cx="50%" cy="50%" fx="50%" fy="50%" r="123.276012%" gradientTransform="translate(0.5, 0.5), scale(0.831, 1), rotate(153.6827), scale(1, 0.8698), translate(-0.5, -0.5)" id="radialGradient-5">
            <stop stop-color="#FFD88A" offset="0%"></stop>
            <stop stop-color="#000000" offset="100%"></stop>
        </radialGradient>
        <radialGradient cx="50%" cy="50%" fx="50%" fy="50%" r="94.5753976%" gradientTransform="translate(0.5, 0.5), scale(0.9947, 1), rotate(-46.5778), scale(1, 0.7128), translate(-0.5, -0.5)" id="radialGradient-6">
            <stop stop-color="#FFD88A" offset="0%"></stop>
            <stop stop-color="#000000" offset="100%"></stop>
        </radialGradient>
        <radialGradient cx="50%" cy="50%" fx="50%" fy="50%" r="197.409919%" gradientTransform="translate(0.5, 0.5), scale(0.6243, 1), rotate(4.8415), scale(1, 1.1441), translate(-0.5, -0.5)" id="radialGradient-7">
            <stop stop-color="#FFD88A" offset="0%"></stop>
            <stop stop-color="#000000" offset="100%"></stop>
        </radialGradient>
        <radialGradient cx="50%" cy="50%" fx="50%" fy="50%" r="166.455213%" gradientTransform="translate(0.5, 0.5), scale(0.6837, 1), rotate(-166.9372), scale(1, 1.0379), translate(-0.5, -0.5)" id="radialGradient-8">
            <stop stop-color="#FFD88A" offset="0%"></stop>
            <stop stop-color="#000000" offset="100%"></stop>
        </radialGradient>
    </defs>
    <g id="Page-1" stroke="none" stroke-width="1" fill="none" fill-rule="evenodd">
        <g id="Group-6" transform="translate(8, 0)">
            <rect id="Rectangle" stroke="#000000" stroke-width="11" fill="#43342C" x="23.8510436" y="564.931333" width="863.216319" height="132.439635" rx="66.2198174"></rect>
            <rect id="Rectangle-Copy-4" stroke="#000000" stroke-width="11" fill="#43342C" x="23.8510436" y="391.63093" width="863.216319" height="132.439635" rx="66.2198174"></rect>
            <rect id="Rectangle-Copy-3" stroke="#000000" stroke-width="11" fill="url(#radialGradient-1)" x="11.7371917" y="518.978178" width="885.929791" height="47.0455408" rx="23.5227704"></rect>
            <rect id="Rectangle-Copy-5" stroke="#000000" stroke-width="11" fill="url(#radialGradient-2)" x="23.8510436" y="346.585389" width="863.216319" height="47.0455408" rx="23.5227704"></rect>
            <path d="M843.000016,697.000032 C861.225408,697.000032 877.725404,704.387332 889.669052,716.33098 C901.6127,728.274628 909,744.774624 909,763.000016 C909,781.225408 901.6127,797.725404 889.669052,809.669052 C877.725404,821.6127 861.225408,829 843.000016,829 L77.9999839,829 C59.7745916,829 43.2745956,821.6127 31.3309477,809.669052 C19.3872998,797.725404 12,781.225408 12,763.000016 C12,744.774624 19.3872998,728.274628 31.3309477,716.33098 C43.2745956,704.387332 59.7745916,697.000032 77.9999839,697.000032 Z" id="Combined-Shape" stroke="#000000" stroke-width="12" fill="url(#radialGradient-3)"></path>
            <g id="Combined-Shape-2" transform="translate(6, 86)" fill="url(#linearGradient-4)" stroke="#000000" stroke-width="14">
                <path d="M448.904052,-7 C569.682877,-7 679.389017,14.6019964 760.529588,49.6900588 C802.53931,67.8565536 836.941748,89.667936 861.4547,113.923994 C885.942891,138.155551 900.629276,164.878374 903.720931,192.902576 L903.263,192.974 L903.345511,193.501034 C903.737358,196.129373 903.957656,198.813757 903.994472,201.542457 L904,202.362385 C904,218.830858 897.324833,233.740262 886.532547,244.532547 C875.740262,255.324833 860.830858,262 844.362385,262 L52.6376147,262 C36.1691421,262 21.2597385,255.324833 10.4674529,244.532547 C-0.324832606,233.740262 -7,218.830858 -7,202.362385 C-7,197.376827 -6.38704112,192.534371 -5.23363729,187.896521 C3.53822896,133.208234 57.2896385,83.5315253 140.839531,48.1665794 C221.612152,13.9771952 329.881856,-7 448.904052,-7 Z" id="Combined-Shape"></path>
            </g>
            <path d="M711.116696,196.329042 C712.285929,195.941655 713.501491,196.064868 714.521592,196.577236 C715.541692,197.089603 716.366331,197.991126 716.753718,199.16036 C717.151123,200.359833 717.021145,201.671576 716.396073,202.769734 L714.190316,206.644916 C713.580072,207.717023 712.7844,208.617505 711.865519,209.327463 C711.516732,209.596947 711.145863,209.842325 710.754925,210.060764 C710.779709,210.497471 710.767775,210.932503 710.718892,211.3628 C710.469082,213.5618 709.25118,215.664841 707.186499,217.281039 C704.725929,219.207133 701.562428,220.084779 698.452951,219.993629 C695.359388,219.902946 692.289746,218.852943 690.005827,216.797002 C687.940231,214.937593 686.907889,212.565281 687.006531,210.194105 C687.106055,207.801738 688.348532,205.478613 690.582517,203.729887 C692.839918,201.962831 695.690753,201.079224 698.546173,201.014711 C698.930462,201.006028 699.315339,201.01217 699.699182,201.033279 C699.915697,200.769773 700.155686,200.526132 700.416395,200.305501 C700.968476,199.83829 701.606958,199.479779 702.298047,199.250809 Z" id="Combined-Shape" stroke="#000000" stroke-width="6" fill="url(#radialGradient-5)"></path>
            <path d="M381.116696,142.329042 C382.285929,141.941655 383.501491,142.064868 384.521592,142.577236 C385.541692,143.089603 386.366331,143.991126 386.753718,145.16036 C387.151123,146.359833 387.021145,147.671576 386.396073,148.769734 L384.190316,152.644916 C383.580072,153.717023 382.7844,154.617505 381.865519,155.327463 C381.516732,155.596947 381.145863,155.842325 380.754925,156.060764 C380.779709,156.497471 380.767775,156.932503 380.718892,157.3628 C380.469082,159.5618 379.25118,161.664841 377.186499,163.281039 C374.725929,165.207133 371.562428,166.084779 368.452951,165.993629 C365.359388,165.902946 362.289746,164.852943 360.005827,162.797002 C357.940231,160.937593 356.907889,158.565281 357.006531,156.194105 C357.106055,153.801738 358.348532,151.478613 360.582517,149.729887 C362.839918,147.962831 365.690753,147.079224 368.546173,147.014711 C368.930462,147.006028 369.315339,147.01217 369.699182,147.033279 C369.915697,146.769773 370.155686,146.526132 370.416395,146.305501 C370.968476,145.83829 371.606958,145.479779 372.298047,145.250809 Z" id="Combined-Shape-Copy-4" stroke="#000000" stroke-width="6" fill="url(#radialGradient-5)"></path>
            <path d="M453.309862,212.300769 C456.331015,211.680527 459.642545,211.996877 462.524833,213.422906 C465.171345,214.732284 466.991272,216.760338 467.689036,219.064719 C468.34086,221.217388 467.961273,223.564221 466.470735,225.606835 C464.846145,227.833154 462.280569,229.278626 459.471681,229.905674 C459.025935,230.005182 458.576969,230.08343 458.127467,230.13943 C457.988636,230.519516 457.809236,230.884146 457.591948,231.226713 C457.145938,231.929872 456.547806,232.528242 455.839337,232.976498 L449.351698,237.0813 C448.234939,237.787885 446.937503,237.974923 445.74261,237.706124 C444.547717,237.437325 443.455368,236.71269 442.748782,235.595931 C442.087836,234.551306 441.856748,233.291447 442.103923,232.080251 L442.672655,229.29337 C442.949329,227.937622 443.52017,226.716957 444.306688,225.685734 C444.629571,225.262393 444.992856,224.865664 445.394295,224.501581 C445.147325,224.043945 444.951437,223.559327 444.809123,223.05366 C444.214007,220.9391 444.610192,218.649957 446.06849,216.651523 C447.739861,214.361097 450.405655,212.897001 453.309862,212.300769 Z" id="Combined-Shape-Copy" stroke="#000000" stroke-width="6" fill="url(#radialGradient-6)"></path>
            <path d="M562.676293,159.959088 C565.198802,159.036829 567.861365,158.757242 570.542991,159.230087 C573.806202,159.805482 576.51318,161.382558 578.204194,163.542669 C579.722753,165.482483 580.390154,167.900553 579.761579,170.353731 C579.097671,172.944802 577.177178,175.013125 574.713974,176.340103 C572.034098,177.783806 568.689408,178.363958 565.320422,177.769913 C562.495992,177.271888 560.092583,176.024004 558.396737,174.296684 C558.201731,174.098059 558.013236,173.890197 557.831615,173.673691 C557.571625,173.626006 557.290976,173.564388 556.979734,173.487018 C556.010822,173.24616 555.375353,173.009237 554.782843,172.684384 L548.087296,169.013448 C547.094673,168.469227 546.416611,167.574188 546.122759,166.567048 C545.828908,165.559909 545.919267,164.440668 546.463488,163.448046 C547.087014,162.310775 548.211947,161.535656 549.496713,161.358045 L559.043183,160.038306 C559.740991,159.941838 560.427919,159.963112 561.083597,160.088283 C561.341282,160.137476 561.597543,160.203366 561.851311,160.286233 C562.122401,160.170075 562.397469,160.06103 562.676293,159.959088 Z" id="Combined-Shape-Copy-2" stroke="#000000" stroke-width="6" fill="url(#radialGradient-7)"></path>
            <path d="M214.188461,184.443398 C217.180314,183.689608 220.522676,183.868319 223.504932,185.175063 C226.007077,186.271435 227.854367,187.992969 228.8172,190.019977 C228.972168,190.346223 229.106526,190.685229 229.219874,191.035036 C229.571911,191.150368 229.911433,191.286281 230.237489,191.441507 C230.56599,191.597897 230.887893,191.777259 231.201576,191.979651 C231.665153,192.278757 232.098625,192.622122 232.495904,193.004924 L236.779798,197.132704 C237.571212,197.895278 237.978609,198.906443 237.997509,199.924818 C238.016409,200.943193 237.646812,201.968779 236.884239,202.760193 C236.043321,203.632914 234.850572,204.074921 233.644009,203.960953 L223.523051,203.00496 C222.842207,202.940649 222.201715,202.755992 221.621397,202.472576 C221.359398,202.34462 221.105732,202.194613 220.862975,202.022815 C220.535476,202.092766 220.20658,202.151467 219.877191,202.198909 C217.292558,202.571175 214.541444,202.269861 212.043536,201.175346 C209.282797,199.965664 207.314548,197.991285 206.461041,195.690696 C205.672556,193.565368 205.890752,191.197871 207.252779,189.086899 C208.77206,186.732202 211.33555,185.162183 214.188461,184.443398 Z" id="Combined-Shape-Copy-3" stroke="#000000" stroke-width="6" fill="url(#radialGradient-8)"></path>
            <rect id="Rectangle" stroke-opacity="0" stroke="#979797" x="0.5" y="0.5" width="909" height="909"></rect>
        </g>
    </g>
</svg>